# xmcd
# 
# Track frame offsets:
#     150
#     8976
#     19295
#     32246
#     42104
#     51793
#     63451
#     76284
#     85165
#     94611
#     108174
#     121935
#     134201
#     144677
#     155447
#     165999
#     177709
#     188630
#     202132
#     212770
#     226369
#     237344
#     247579
#     261197
#     272925
#     285324
# 
# Disc length: 3975
# 
# Revision: 1
# Processed by: cddbd v1.5.2PL0 Copyright (c) Steve Scherf et al.
# Submitted via: fre:ac v1.0.17
# 
DISCID=6f0f851a
DTITLE=Various Artist - 101 - Country Number Ones [CD4]
DYEAR=2016
DGENRE=Country
TTITLE0=Elvis Presley - All Shook Up
TTITLE1=The Everly Brothers - All I Have To Do Is Dream
TTITLE2=Jerry Lee Lewis - Whole Lotta Shakin' Goin' On
TTITLE3=Johnny Cash - Ballad Of A Teenage Queen
TTITLE4=Marty Robbins - Just Married
TTITLE5=Ray Price - My Shoes Keep Walking Back To You
TTITLE6=The Browns - The Three Bells
TTITLE7=Don Gibson - Blue Blue Day
TTITLE8=Jim Reeves - Billy Bayou
TTITLE9=Ray Price - City Lights
TTITLE10=Johnny Cash - Don't Take Your Guns To Town
TTITLE11=Ray Price - The Same Old Me
TTITLE12=Cowboy Copas - Alabam
TTITLE13=Ferlin Husky - Wings Of A Dove
TTITLE14=Jim Reeves - He'll Have To Go
TTITLE15=Johnny Horton - When It's Springtime In Alaska
TTITLE16=Faron Young - Hello Walls
TTITLE17=Jimmy Dean - Big Bad John
TTITLE18=Leroy Van Dyke - Walk On By
TTITLE19=Patsy Cline - She's Got You
TTITLE20=Sheb Wooley - That's My Pa
TTITLE21=Billy Walker - Charlie's Shoes
TTITLE22=Claude King - Wolverton Mountain
TTITLE23=George Jones - She Thinks I Still Care
TTITLE24=Hank Snow - I've Been Everywhere
TTITLE25=Marty Robbins - Devil Woman
EXTD=
EXTT0=
EXTT1=
EXTT2=
EXTT3=
EXTT4=
EXTT5=
EXTT6=
EXTT7=
EXTT8=
EXTT9=
EXTT10=
EXTT11=
EXTT12=
EXTT13=
EXTT14=
EXTT15=
EXTT16=
EXTT17=
EXTT18=
EXTT19=
EXTT20=
EXTT21=
EXTT22=
EXTT23=
EXTT24=
EXTT25=
PLAYORDER=
